<svg width="65" height="65" viewBox="0 0 65 65" fill="none" xmlns="http://www.w3.org/2000/svg">
<path d="M46.0418 5.41699H18.9584C11.4796 5.41699 5.41675 11.4798 5.41675 18.9587V46.042C5.41675 53.5209 11.4796 59.5837 18.9584 59.5837H46.0418C53.5206 59.5837 59.5834 53.5209 59.5834 46.042V18.9587C59.5834 11.4798 53.5206 5.41699 46.0418 5.41699Z" stroke="white" stroke-width="5" stroke-linecap="round" stroke-linejoin="round"/>
<path d="M43.3334 30.7941C43.6677 33.0481 43.2827 35.3501 42.2332 37.3727C41.1837 39.3952 39.5232 41.0354 37.4878 42.0599C35.4525 43.0843 33.1459 43.4409 30.8962 43.0789C28.6465 42.7169 26.5682 41.6547 24.957 40.0435C23.3457 38.4322 22.2835 36.3539 21.9215 34.1042C21.5595 31.8545 21.9161 29.548 22.9406 27.5126C23.965 25.4772 25.6052 23.8167 27.6278 22.7672C29.6503 21.7178 31.9524 21.3328 34.2064 21.667C36.5055 22.0079 38.6341 23.0793 40.2776 24.7228C41.9211 26.3664 42.9925 28.4949 43.3334 30.7941Z" stroke="white" stroke-width="5" stroke-linecap="round" stroke-linejoin="round"/>
<path d="M47.3958 17.6045H47.4228" stroke="white" stroke-width="5" stroke-linecap="round" stroke-linejoin="round"/>
</svg>
