<svg width="65" height="65" viewBox="0 0 65 65" fill="none" xmlns="http://www.w3.org/2000/svg">
<path d="M27.0833 35.2084C28.2464 36.7633 29.7303 38.0499 31.4343 38.9809C33.1384 39.912 35.0228 40.4656 36.9596 40.6043C38.8964 40.743 40.8405 40.4636 42.6598 39.7849C44.4792 39.1062 46.1313 38.0442 47.5041 36.6709L55.6291 28.5459C58.0958 25.9919 59.4607 22.5713 59.4299 19.0207C59.399 15.4701 57.9749 12.0737 55.4641 9.56294C52.9534 7.05221 49.557 5.62805 46.0064 5.59719C42.4558 5.56634 39.0352 6.93126 36.4812 9.39799L31.8228 14.0292" stroke="white" stroke-width="5" stroke-linecap="round" stroke-linejoin="round"/>
<path d="M37.9167 29.7918C36.7536 28.2369 35.2697 26.9503 33.5656 26.0193C31.8616 25.0883 29.9772 24.5346 28.0404 24.3959C26.1035 24.2572 24.1595 24.5367 22.3402 25.2153C20.5208 25.894 18.8687 26.956 17.4959 28.3293L9.37089 36.4543C6.90416 39.0083 5.53924 42.429 5.57009 45.9796C5.60095 49.5301 7.02511 52.9266 9.53584 55.4373C12.0466 57.948 15.443 59.3722 18.9936 59.403C22.5442 59.4339 25.9648 58.069 28.5188 55.6022L33.1501 50.971" stroke="white" stroke-width="5" stroke-linecap="round" stroke-linejoin="round"/>
</svg>
